<svg width="48" height="50" viewBox="0 0 48 50" fill="none" xmlns="http://www.w3.org/2000/svg">
<g id="layer1">
<path id="path184" d="M16.954 29.0882C16.9311 28.4984 17.1725 27.8869 17.3241 27.3186C17.5463 26.4851 17.7392 25.6505 17.942 24.8116C18.6235 21.9918 19.3103 19.1697 20.0205 16.3569C20.3008 15.2466 20.5588 14.1345 20.7912 13.0143C20.8491 12.7353 21.1489 12.1188 21.0148 11.8502C20.9122 11.6445 20.3546 11.7362 20.1614 11.7362H18.1759C17.926 11.7362 17.5506 11.6693 17.3177 11.7659C17.1264 11.8453 17.0921 12.1043 17.0505 12.277C16.9477 12.704 16.8341 13.1304 16.7209 13.555C16.2287 15.4007 15.7661 17.2536 15.3195 19.1096C13.5204 26.5868 11.5135 34.016 9.63963 41.4754C9.10434 43.6062 8.56844 45.7392 8.01768 47.8656C7.88592 48.3744 7.7479 48.8797 7.62027 49.3895C7.5828 49.5389 7.46372 49.8043 7.65927 49.9007C7.89218 50.0147 8.34688 49.9302 8.60449 49.9302H10.8446C11.0829 49.9302 11.6385 50.029 11.8171 49.8515C12.0413 49.6283 12.0273 49.0906 12.0855 48.7996C12.2312 48.0721 12.4727 47.3583 12.6472 46.6367C13.4424 43.3464 14.3097 40.055 15.0593 36.7565C15.2642 35.8545 15.4727 34.9503 15.6981 34.0529C15.767 33.7786 15.8068 33.2309 16.0492 33.0503C16.2181 32.9245 16.4998 32.9715 16.6994 32.9715H18.2268H24.2852H28.3073C28.7024 32.9715 29.5318 32.8196 29.8701 33.0294C30.0397 33.1346 30.0629 33.3896 30.1061 33.5613C30.2127 33.9859 30.3092 34.4191 30.4308 34.8394C30.8031 36.1254 31.0926 37.4348 31.4649 38.7219C31.5535 39.0285 31.6029 39.8192 31.8871 39.9993C32.1164 40.1447 32.5453 40.0337 32.7875 39.9808C33.282 39.8726 33.8179 39.9305 34.3148 39.811C34.8409 39.6843 35.4382 39.704 35.941 39.4877C36.2581 39.3512 36.0917 39.0217 36.0289 38.7719C35.8684 38.1328 35.6724 37.4989 35.5354 36.8548C34.9397 34.0522 34.0552 31.2624 33.2842 28.4983C31.3445 21.5438 29.5683 14.5337 27.7189 7.55802C27.2596 5.82568 26.7302 4.09447 26.3361 2.34753C26.22 1.83321 26.0434 1.33472 25.9198 0.823701C25.8736 0.632914 25.8495 0.299773 25.6887 0.165184C25.4255 -0.0551702 24.6201 0.0863665 24.2852 0.0863665C23.0037 0.0863665 21.5279 -0.112723 20.2662 0.0936455C19.8901 0.155165 19.8132 1.11101 19.7372 1.41356C19.3905 2.794 18.9554 4.15438 18.64 5.54264C18.5761 5.82376 18.1365 6.85563 18.4102 7.06508C18.5755 7.19151 18.9941 7.11562 19.1941 7.11562H21.1796C21.3942 7.11562 21.7901 7.18856 21.961 7.03682C22.2074 6.81798 22.2547 6.05385 22.3096 5.73926C22.3774 5.34975 22.4553 4.94077 22.5615 4.55952C22.582 4.48628 22.6343 4.162 22.7811 4.26071C23.0168 4.41928 23.0372 5.27739 23.1073 5.54264C23.45 6.84074 23.7263 8.16239 23.9987 9.47509C24.3075 10.9634 24.7963 12.415 25.1248 13.8991C25.8375 17.1196 26.6625 20.3494 27.5222 23.5336C27.8889 24.8917 28.2366 26.2543 28.5991 27.6135C28.6738 27.8937 29.0511 28.7694 28.8769 29.0177C28.7462 29.2038 28.3519 29.1373 28.1545 29.1373H26.0162H20.2123C19.1368 29.1373 18.0209 29.2184 16.954 29.0882ZM0.865936 7.558C0.691206 8.46679 0.815025 9.48559 0.815025 10.409V15.8161V32.7257V40.5906V42.9501C0.815025 43.2912 0.7327 43.748 0.837105 44.0753C0.957867 44.4539 2.15897 44.2773 2.49509 44.2773H6.87348C7.22309 44.2773 8.16327 44.4356 8.40597 44.1576C8.59317 43.9431 8.6116 43.5572 8.67779 43.2941C8.8264 42.7035 8.94395 42.1096 9.10636 41.5245C9.16135 41.3265 9.39528 40.8022 9.18471 40.6411C9.01945 40.5147 8.60081 40.5906 8.40083 40.5906H6.31345C6.07295 40.5906 5.50579 40.6959 5.38391 40.4358C5.16163 39.9614 5.34613 39.0457 5.34613 38.526V34.0037V18.0773V13.0634C5.34613 12.6631 5.15471 11.6124 5.47005 11.3191C5.73123 11.0762 6.38671 11.1955 6.72075 11.1955H10.1827H23.9288C23.8151 10.3306 23.4477 9.5025 23.3212 8.63943C23.2845 8.38903 23.261 7.76922 23.0347 7.60854C22.7413 7.40021 21.8449 7.558 21.4851 7.558H17.2085H0.865936ZM28.4405 7.60854C28.2665 7.74735 28.5075 8.2657 28.5474 8.4428C28.7037 9.13526 28.9093 9.81724 29.0763 10.5073C29.1315 10.7358 29.1953 11.1419 29.481 11.1882C30.4423 11.3441 31.4592 11.223 32.4311 11.2984C34.8246 11.4842 37.4947 11.877 39.406 13.4203C41.2141 14.8803 41.8052 17.5533 42.1149 19.6994C42.5654 22.8211 42.7189 26.1292 42.415 29.2848C42.2174 31.3369 42.0926 33.3035 41.374 35.2818C41.057 36.1543 40.6122 37.0058 40.0065 37.7255C39.0676 38.8411 37.6711 39.42 36.3004 39.8625C32.9883 40.9317 29.2673 40.5906 25.8126 40.5906H21.5869H16.343C16.0033 40.5906 14.8312 40.4171 14.6275 40.7045C14.4776 40.9159 14.4804 41.234 14.4214 41.4754C14.2649 42.1147 14.0958 42.7501 13.9543 43.3925C13.9132 43.5787 13.6655 44.0839 13.8655 44.2193C14.2381 44.4716 15.3323 44.2773 15.783 44.2773H20.976C24.6948 44.2773 28.4627 44.4496 32.1765 44.2754C32.8335 44.2445 33.5058 44.0873 34.1621 44.0361C37.1745 43.8012 40.3387 43.2441 42.7152 41.2686C44.8275 39.5126 45.7969 36.9391 46.4109 34.397C46.8884 32.4214 46.9312 30.4578 47.0982 28.4492C47.3599 25.308 47.2244 22.1236 46.7026 19.0113C46.3055 16.6413 45.7246 14.1662 44.2249 12.1787C41.4243 8.467 36.8245 7.89045 32.4311 7.65426C31.4495 7.60146 30.4722 7.55806 29.4782 7.55806C29.2344 7.55806 28.6358 7.45276 28.4405 7.60854ZM37.0618 44.2519C36.0066 44.3001 34.901 44.5202 33.8566 44.6603C33.6289 44.6909 33.035 44.5572 32.8797 44.7494C32.7698 44.8855 32.9227 45.2128 32.9616 45.3588C33.1017 45.8843 33.2509 46.4068 33.3905 46.9318C33.5812 47.6489 33.7405 48.3873 33.9676 49.0946C34.0355 49.306 34.08 49.6963 34.2488 49.8516C34.4593 50.0453 35.1095 49.9303 35.3839 49.9303C36.4216 49.9303 37.6178 50.092 38.6393 49.9229C38.9982 49.8634 38.5878 48.9408 38.5241 48.7014C38.2202 47.5585 37.9256 46.3876 37.5639 45.2605C37.4813 45.0032 37.4064 44.2362 37.0618 44.2519Z" fill="#565D67"/>
</g>
</svg>
