<svg width="181" height="34" viewBox="0 0 181 34" fill="none" xmlns="http://www.w3.org/2000/svg">
<g id="logos:monday" clip-path="url(#clip0_739_195)">
<g id="Group">
<path id="Vector" d="M4.58966 25.8688C3.92717 25.8702 3.27618 25.6957 2.70318 25.3632C2.13019 25.0307 1.65574 24.552 1.32829 23.9761C1.00579 23.4043 0.84493 22.7555 0.862934 22.0993C0.880937 21.443 1.07713 20.804 1.43049 20.2508L8.1471 9.70382C8.49083 9.13694 8.97886 8.67146 9.56135 8.35492C10.1438 8.03838 10.7999 7.88211 11.4626 7.90209C12.1247 7.91795 12.7708 8.10945 13.3347 8.45701C13.8985 8.80456 14.3599 9.29569 14.6716 9.88013C14.9786 10.46 15.122 11.1126 15.0865 11.7678C15.0509 12.423 14.8377 13.0562 14.4696 13.5995L7.75725 24.1475C7.41681 24.6779 6.94797 25.1138 6.39418 25.4148C5.84039 25.7157 5.21958 25.872 4.58931 25.8691L4.58966 25.8688Z" fill="#F62B54"/>
<path id="Vector_2" d="M16.1098 25.8687C14.7552 25.8687 13.5088 25.1445 12.8541 23.9802C12.5324 23.4099 12.372 22.7629 12.39 22.1084C12.4081 21.4539 12.604 20.8167 12.9567 20.265L19.6603 9.74198C19.9989 9.16711 20.4852 8.6933 21.0687 8.3697C21.6521 8.0461 22.3115 7.88449 22.9785 7.90162C24.3448 7.93183 25.5828 8.69607 26.209 9.89125C26.5145 10.4766 26.6535 11.1347 26.6108 11.7936C26.568 12.4526 26.3452 13.0871 25.9667 13.6282L19.2648 24.1509C18.9254 24.679 18.4585 25.1132 17.9071 25.4134C17.3557 25.7135 16.7376 25.87 16.1098 25.8683V25.8687Z" fill="#FFCC00"/>
<path id="Vector_3" d="M27.3731 25.9567C29.2829 25.9567 30.8311 24.4411 30.8311 22.5714C30.8311 20.7017 29.2829 19.186 27.3731 19.186C25.4633 19.186 23.915 20.7017 23.915 22.5714C23.915 24.4411 25.4633 25.9567 27.3731 25.9567Z" fill="#00CA72"/>
</g>
<path id="Vector_4" d="M177.593 19.3828C178.638 19.3828 179.262 20.1256 179.262 21.3422V25.5114H180.681V21.2467C180.681 19.178 179.706 17.9783 177.873 17.9783C177.156 17.9783 176.018 18.1746 175.339 19.4938C175.181 19.1046 174.921 18.7655 174.586 18.5123C174.251 18.2592 173.854 18.1016 173.437 18.0562C173.174 18.0082 172.906 17.9925 172.639 18.0095C172.056 18.0562 171.017 18.4194 170.629 19.2416V18.136H169.209V25.5114H170.629V21.5315C170.629 19.983 171.642 19.3828 172.656 19.3828C173.607 19.3828 174.232 20.1098 174.232 21.3264V25.5114H175.644V21.5315C175.644 20.2987 176.384 19.3684 177.593 19.3828H177.593ZM163.996 24.279C164.318 24.2856 164.638 24.2256 164.935 24.1027C165.233 23.9797 165.502 23.7966 165.725 23.5647C165.951 23.3311 166.126 23.0544 166.242 22.7512C166.358 22.4479 166.411 22.1245 166.398 21.8002C166.398 20.3145 165.306 19.3828 163.996 19.3828C162.686 19.3828 161.594 20.3145 161.594 21.8002C161.581 22.1235 161.634 22.4462 161.749 22.7487C161.864 23.0512 162.039 23.3273 162.263 23.5605C162.485 23.7922 162.753 23.9755 163.049 24.0992C163.345 24.2228 163.664 24.284 163.985 24.279H163.996ZM163.996 25.6621C161.922 25.6621 160.19 24.1298 160.19 21.7917C160.19 19.4537 161.921 17.9695 163.996 17.9695C166.071 17.9695 167.817 19.4537 167.817 21.7917C167.817 24.1298 166.061 25.6691 163.986 25.6691L163.996 25.6621ZM152.883 21.7917L152.869 21.8002C152.869 19.4621 154.646 17.9783 156.735 17.9695C157.259 17.9593 157.78 18.0595 158.264 18.2634C158.748 18.4674 159.183 18.7706 159.542 19.1534L158.466 20.0701C158.238 19.8457 157.967 19.6688 157.67 19.5496C157.373 19.4303 157.055 19.3711 156.735 19.3754C155.426 19.3754 154.287 20.3075 154.287 21.7917C154.287 22.7948 154.883 23.6988 155.799 24.0827C156.246 24.2701 156.739 24.3191 157.215 24.2232C157.691 24.1274 158.126 23.8911 158.466 23.545L159.558 24.4613C159.198 24.8482 158.76 25.155 158.274 25.3619C157.788 25.5689 157.263 25.6713 156.735 25.6625C154.661 25.6625 152.883 24.1298 152.883 21.7917ZM148.339 24.0957C148.336 23.8353 148.437 23.5844 148.619 23.3981C148.801 23.2119 149.049 23.1055 149.31 23.1025C149.57 23.1055 149.818 23.2119 150 23.3981C150.182 23.5844 150.283 23.8353 150.28 24.0957C150.267 24.3454 150.16 24.5807 149.979 24.7539C149.799 24.927 149.56 25.0249 149.31 25.0275C149.06 25.0249 148.82 24.927 148.64 24.7539C148.459 24.5807 148.352 24.3454 148.339 24.0957ZM152.221 8.75997H147.168L143.626 17.8915L140.103 8.75997H135.05L141.193 23.1892L137.372 32.7289H142.388L152.221 8.75997ZM121.49 16.7855C121.49 19.0909 123.505 20.6078 125.484 20.6078C127.43 20.6078 129.341 19.1959 129.341 16.7841C129.341 14.3724 127.43 12.9594 125.484 12.9594C123.505 12.9594 121.49 14.4777 121.49 16.7841V16.7855ZM129.341 24.8424V23.0168C128.316 24.5681 125.925 25.1543 124.699 25.1543C120.638 25.1543 116.575 21.9526 116.575 16.7841C116.575 11.6174 120.636 8.41543 124.699 8.41543C125.722 8.41543 128.112 8.75716 129.341 10.5501V8.76594H134.051V24.8455L129.341 24.8441V24.8427L129.341 24.8424ZM115.234 24.8424H110.525V22.8447C109.738 24.3247 107.829 25.1873 105.848 25.1873C101.752 25.1873 98.1328 21.9154 98.1328 16.8495C98.1328 11.6884 101.752 8.41262 105.848 8.41262C107.826 8.41262 109.74 9.23797 110.524 10.7194V0H115.234V24.8427V24.8424ZM110.422 16.7487C110.422 14.3379 108.682 12.925 106.736 12.925C104.722 12.925 103.048 14.4405 103.048 16.7487C103.048 19.1306 104.722 20.6391 106.735 20.6391C108.717 20.6419 110.422 19.0568 110.422 16.7487Z" fill="#333333"/>
<path id="Vector_5" d="M86.4873 16.3332C86.4873 13.8888 87.751 13.0617 89.4228 13.0617C91.0264 13.0617 92.1879 14.129 92.1879 16.2633V24.84H96.9321V15.2318C96.9321 10.6527 94.678 8.41266 91.0935 8.41266C89.2166 8.41266 87.3397 9.48035 86.4856 11.0994V8.76001H81.7442V24.84H86.4873V16.3332ZM72.1108 25.116C67.6054 25.116 63.8474 21.8104 63.8474 16.7473C63.8474 11.6814 67.6012 8.40845 72.1108 8.40845C76.6203 8.40845 80.4064 11.6814 80.4064 16.7473C80.4064 21.8132 76.6158 25.1174 72.1108 25.1174V25.116ZM72.1108 20.4344C74.0888 20.4344 75.7293 18.9856 75.7293 16.7487C75.7293 14.5786 74.0902 13.0971 72.1108 13.0971C71.6342 13.0897 71.161 13.1794 70.7202 13.3607C70.2793 13.5421 69.88 13.8112 69.5466 14.1518C69.2111 14.4942 68.948 14.9006 68.7727 15.3467C68.5974 15.7928 68.5136 16.2696 68.5263 16.7487C68.5277 18.9884 70.1654 20.4344 72.1108 20.4344Z" fill="#333333"/>
<path id="Vector_6" d="M55.3416 13.0629C56.7405 13.0629 57.9701 14.1657 57.9701 16.2646V24.8426H62.6799V15.7096C62.6799 10.8545 60.3194 8.40967 56.5354 8.40967C55.4115 8.40967 53.2937 8.7514 51.7571 11.2671C50.8693 9.40712 49.1631 8.44233 46.6414 8.44233C45.7659 8.43789 44.9076 8.6857 44.1693 9.15612C43.4309 9.62655 42.8436 10.2997 42.4777 11.095V8.76123H37.7307V24.8412H42.4735V16.333C42.4735 13.8886 43.8053 13.0615 45.2383 13.0615C46.6045 13.0615 47.8313 14.1288 47.8667 16.161V24.8412H52.6109V16.333C52.6109 13.995 53.8402 13.0643 55.3416 13.0643V13.0629Z" fill="#333333"/>
</g>
<defs>
<clipPath id="clip0_739_195">
<rect width="179.821" height="33.3653" fill="white" transform="translate(0.861328)"/>
</clipPath>
</defs>
</svg>
