<svg width="21" height="20" viewBox="0 0 21 20" fill="none" xmlns="http://www.w3.org/2000/svg">
<g id="fi-rr-envelope" clip-path="url(#clip0_45_4371)">
<path id="Vector" d="M16.3333 0.833252H4.66667C3.562 0.834575 2.50296 1.27399 1.72185 2.0551C0.940735 2.83622 0.501323 3.89526 0.5 4.99992L0.5 14.9999C0.501323 16.1046 0.940735 17.1636 1.72185 17.9447C2.50296 18.7258 3.562 19.1653 4.66667 19.1666H16.3333C17.438 19.1653 18.497 18.7258 19.2782 17.9447C20.0593 17.1636 20.4987 16.1046 20.5 14.9999V4.99992C20.4987 3.89526 20.0593 2.83622 19.2782 2.0551C18.497 1.27399 17.438 0.834575 16.3333 0.833252ZM4.66667 2.49992H16.3333C16.8323 2.5009 17.3196 2.65118 17.7325 2.93142C18.1453 3.21166 18.4649 3.60904 18.65 4.07242L12.2683 10.4549C11.7987 10.9227 11.1628 11.1853 10.5 11.1853C9.83715 11.1853 9.20131 10.9227 8.73167 10.4549L2.35 4.07242C2.53512 3.60904 2.85468 3.21166 3.26754 2.93142C3.6804 2.65118 4.16768 2.5009 4.66667 2.49992ZM16.3333 17.4999H4.66667C4.00363 17.4999 3.36774 17.2365 2.8989 16.7677C2.43006 16.2988 2.16667 15.663 2.16667 14.9999V6.24992L7.55333 11.6333C8.33552 12.4135 9.39521 12.8516 10.5 12.8516C11.6048 12.8516 12.6645 12.4135 13.4467 11.6333L18.8333 6.24992V14.9999C18.8333 15.663 18.5699 16.2988 18.1011 16.7677C17.6323 17.2365 16.9964 17.4999 16.3333 17.4999Z" fill="white"/>
</g>
<defs>
<clipPath id="clip0_45_4371">
<rect width="20" height="20" fill="white" transform="translate(0.5)"/>
</clipPath>
</defs>
</svg>
