<svg width="21" height="20" viewBox="0 0 21 20" fill="none" xmlns="http://www.w3.org/2000/svg">
<g id="fi-rr-marker" clip-path="url(#clip0_45_4362)">
<path id="Vector" d="M10.5003 5C9.84106 5 9.19659 5.1955 8.64843 5.56177C8.10026 5.92804 7.67302 6.44863 7.42073 7.05772C7.16844 7.66681 7.10243 8.33703 7.23104 8.98363C7.35966 9.63024 7.67713 10.2242 8.1433 10.6904C8.60948 11.1565 9.20342 11.474 9.85003 11.6026C10.4966 11.7312 11.1669 11.6652 11.7759 11.4129C12.385 11.1606 12.9056 10.7334 13.2719 10.1852C13.6382 9.63707 13.8337 8.9926 13.8337 8.33333C13.8337 7.44928 13.4825 6.60143 12.8574 5.97631C12.2322 5.35119 11.3844 5 10.5003 5ZM10.5003 10C10.1707 10 9.84846 9.90225 9.57438 9.71912C9.3003 9.53598 9.08667 9.27568 8.96053 8.97114C8.83438 8.6666 8.80138 8.33148 8.86569 8.00818C8.92999 7.68488 9.08873 7.38791 9.32182 7.15482C9.5549 6.92173 9.85188 6.763 10.1752 6.69869C10.4985 6.63438 10.8336 6.66739 11.1381 6.79353C11.4427 6.91968 11.703 7.1333 11.8861 7.40738C12.0692 7.68146 12.167 8.0037 12.167 8.33333C12.167 8.77536 11.9914 9.19928 11.6788 9.51184C11.3663 9.8244 10.9424 10 10.5003 10Z" fill="white"/>
<path id="Vector_2" d="M10.4998 20.0002C9.79806 20.0038 9.1057 19.8392 8.48066 19.5202C7.85562 19.2013 7.3161 18.7372 6.90727 18.1669C3.73144 13.786 2.12061 10.4927 2.12061 8.3777C2.12061 6.15541 3.00341 4.02414 4.57481 2.45274C6.1462 0.881338 8.27748 -0.00146484 10.4998 -0.00146484C12.7221 -0.00146484 14.8533 0.881338 16.4247 2.45274C17.9961 4.02414 18.8789 6.15541 18.8789 8.3777C18.8789 10.4927 17.2681 13.786 14.0923 18.1669C13.6834 18.7372 13.1439 19.2013 12.5189 19.5202C11.8938 19.8392 11.2015 20.0038 10.4998 20.0002ZM10.4998 1.8177C8.76012 1.81969 7.09229 2.51164 5.86217 3.74176C4.63204 4.97188 3.94009 6.63972 3.93811 8.37937C3.93811 10.0544 5.5156 13.1519 8.37894 17.101C8.62202 17.4359 8.94091 17.7084 9.30953 17.8963C9.67815 18.0842 10.086 18.1821 10.4998 18.1821C10.9135 18.1821 11.3214 18.0842 11.69 17.8963C12.0586 17.7084 12.3775 17.4359 12.6206 17.101C15.4839 13.1519 17.0614 10.0544 17.0614 8.37937C17.0595 6.63972 16.3675 4.97188 15.1374 3.74176C13.9073 2.51164 12.2394 1.81969 10.4998 1.8177Z" fill="white"/>
</g>
<defs>
<clipPath id="clip0_45_4362">
<rect width="20" height="20" fill="white" transform="translate(0.5)"/>
</clipPath>
</defs>
</svg>
