<svg width="21" height="20" viewBox="0 0 21 20" fill="none" xmlns="http://www.w3.org/2000/svg">
<g id="fi-rr-phone-call" clip-path="url(#clip0_45_4379)">
<path id="Vector" d="M11.3335 0.833444C11.3335 0.61243 11.4213 0.400468 11.5775 0.244188C11.7338 0.0879075 11.9458 0.000110103 12.1668 0.000110103C14.3762 0.00253643 16.4944 0.881289 18.0567 2.44357C19.6189 4.00584 20.4977 6.12405 20.5001 8.33344C20.5001 8.55446 20.4123 8.76642 20.256 8.9227C20.0998 9.07898 19.8878 9.16678 19.6668 9.16678C19.4458 9.16678 19.2338 9.07898 19.0775 8.9227C18.9213 8.76642 18.8335 8.55446 18.8335 8.33344C18.8315 6.56594 18.1285 4.8714 16.8786 3.62159C15.6288 2.37178 13.9343 1.66876 12.1668 1.66678C11.9458 1.66678 11.7338 1.57898 11.5775 1.4227C11.4213 1.26642 11.3335 1.05446 11.3335 0.833444ZM12.1668 5.00011C13.0509 5.00011 13.8987 5.3513 14.5238 5.97642C15.1489 6.60154 15.5001 7.44939 15.5001 8.33344C15.5001 8.55446 15.5879 8.76642 15.7442 8.9227C15.9005 9.07898 16.1125 9.16678 16.3335 9.16678C16.5545 9.16678 16.7664 9.07898 16.9227 8.9227C17.079 8.76642 17.1668 8.55446 17.1668 8.33344C17.1655 7.00777 16.6383 5.73677 15.7009 4.79937C14.7635 3.86198 13.4925 3.33477 12.1668 3.33344C11.9458 3.33344 11.7338 3.42124 11.5775 3.57752C11.4213 3.7338 11.3335 3.94576 11.3335 4.16678C11.3335 4.38779 11.4213 4.59975 11.5775 4.75603C11.7338 4.91231 11.9458 5.00011 12.1668 5.00011ZM19.7443 13.9493C20.2272 14.4335 20.4984 15.0895 20.4984 15.7734C20.4984 16.4573 20.2272 17.1133 19.7443 17.5976L18.986 18.4718C12.161 25.0059 -4.44734 8.40178 1.98598 1.55511L2.94431 0.721777C3.42912 0.252341 4.07926 -0.007349 4.75407 -0.00111086C5.42887 0.00512727 6.0741 0.276792 6.55014 0.75511C6.57598 0.780944 8.12014 2.78678 8.12014 2.78678C8.57833 3.26813 8.83339 3.90755 8.83231 4.57211C8.83122 5.23667 8.57407 5.87526 8.11431 6.35511L7.14931 7.56844C7.68335 8.86604 8.46853 10.0453 9.45973 11.0385C10.4509 12.0317 11.6286 12.8193 12.9251 13.3559L14.146 12.3851C14.6259 11.9257 15.2644 11.6689 15.9287 11.6679C16.5931 11.667 17.2323 11.9221 17.7135 12.3801C17.7135 12.3801 19.7185 13.9234 19.7443 13.9493ZM18.5976 15.1609C18.5976 15.1609 16.6035 13.6268 16.5776 13.6009C16.406 13.4307 16.174 13.3352 15.9322 13.3352C15.6905 13.3352 15.4585 13.4307 15.2868 13.6009C15.2643 13.6243 13.5835 14.9634 13.5835 14.9634C13.4702 15.0536 13.3354 15.1127 13.1923 15.1349C13.0493 15.1571 12.9029 15.1417 12.7676 15.0901C11.088 14.4648 9.56242 13.4857 8.29417 12.2193C7.02592 10.953 6.04465 9.4288 5.41681 7.75011C5.36114 7.61299 5.34299 7.46352 5.36423 7.31706C5.38547 7.1706 5.44532 7.03244 5.53764 6.91678C5.53764 6.91678 6.87681 5.23511 6.89931 5.21344C7.06953 5.04177 7.16504 4.80979 7.16504 4.56803C7.16504 4.32626 7.06953 4.09429 6.89931 3.92261C6.87348 3.89761 5.33931 1.90178 5.33931 1.90178C5.16506 1.74553 4.93765 1.66186 4.70369 1.6679C4.46972 1.67394 4.24693 1.76925 4.08098 1.93428L3.12265 2.76761C-1.57901 8.42094 12.8135 22.0151 17.7676 17.3334L18.5268 16.4584C18.7047 16.2937 18.8115 16.0662 18.8248 15.824C18.838 15.5819 18.7565 15.3441 18.5976 15.1609Z" fill="white"/>
</g>
<defs>
<clipPath id="clip0_45_4379">
<rect width="20" height="20" fill="white" transform="translate(0.5)"/>
</clipPath>
</defs>
</svg>
