<svg width="17" height="18" viewBox="0 0 17 18" fill="none" xmlns="http://www.w3.org/2000/svg">
<g id="fi-rr-pencil" clip-path="url(#clip0_45_4416)">
<path id="Vector" d="M16.1876 1.31313C15.706 0.832315 15.0533 0.562256 14.3728 0.562256C13.6923 0.562256 13.0396 0.832315 12.5581 1.31313L1.03772 12.8335C0.707814 13.1615 0.446234 13.5517 0.268113 13.9815C0.0899931 14.4113 -0.0011319 14.8722 1.06117e-05 15.3374V16.7916C1.06117e-05 16.9795 0.0746384 17.1597 0.207477 17.2925C0.340315 17.4253 0.520482 17.5 0.708344 17.5H2.16255C2.62776 17.5013 3.08861 17.4103 3.51841 17.2323C3.94822 17.0543 4.33845 16.7928 4.66651 16.463L16.1876 4.94193C16.6682 4.4604 16.9381 3.80786 16.9381 3.12753C16.9381 2.4472 16.6682 1.79466 16.1876 1.31313ZM3.66493 15.4614C3.26543 15.8582 2.72565 16.0817 2.16255 16.0833H1.41668V15.3374C1.41596 15.0583 1.47062 14.7818 1.5775 14.5239C1.68437 14.266 1.84133 14.0319 2.0393 13.8351L10.7823 5.09209L12.4114 6.72126L3.66493 15.4614ZM15.1853 3.94034L13.4102 5.71613L11.781 4.09051L13.5568 2.31472C13.6638 2.20798 13.7907 2.12335 13.9304 2.06567C14.0701 2.008 14.2197 1.97839 14.3709 1.97856C14.522 1.97872 14.6716 2.00865 14.8111 2.06663C14.9507 2.12461 15.0775 2.20952 15.1842 2.31649C15.2909 2.42346 15.3756 2.55041 15.4332 2.69009C15.4909 2.82976 15.5205 2.97943 15.5204 3.13055C15.5202 3.28167 15.4903 3.43128 15.4323 3.57083C15.3743 3.71038 15.2894 3.83714 15.1824 3.94388L15.1853 3.94034Z" fill="#525252"/>
</g>
<defs>
<clipPath id="clip0_45_4416">
<rect width="17" height="17" fill="white" transform="translate(0 0.5)"/>
</clipPath>
</defs>
</svg>
