<svg width="17" height="18" viewBox="0 0 17 18" fill="none" xmlns="http://www.w3.org/2000/svg">
<g id="fi-rr-phone-call" clip-path="url(#clip0_45_4404)">
<path id="Vector" d="M9.20848 1.20849C9.20848 1.02063 9.2831 0.840459 9.41594 0.707621C9.54878 0.574782 9.72895 0.500155 9.91681 0.500155C11.7948 0.502217 13.5953 1.24916 14.9232 2.57709C16.2511 3.90503 16.9981 5.7055 17.0001 7.58349C17.0001 7.77135 16.9255 7.95152 16.7927 8.08436C16.6598 8.21719 16.4797 8.29182 16.2918 8.29182C16.1039 8.29182 15.9238 8.21719 15.7909 8.08436C15.6581 7.95152 15.5835 7.77135 15.5835 7.58349C15.5818 6.08111 14.9842 4.64075 13.9219 3.57841C12.8595 2.51607 11.4192 1.91851 9.91681 1.91682C9.72895 1.91682 9.54878 1.84219 9.41594 1.70936C9.2831 1.57652 9.20848 1.39635 9.20848 1.20849ZM9.91681 4.75015C10.6683 4.75015 11.3889 5.04867 11.9203 5.58002C12.4516 6.11137 12.7501 6.83204 12.7501 7.58349C12.7501 7.77135 12.8248 7.95152 12.9576 8.08436C13.0904 8.21719 13.2706 8.29182 13.4585 8.29182C13.6463 8.29182 13.8265 8.21719 13.9593 8.08436C14.0922 7.95152 14.1668 7.77135 14.1668 7.58349C14.1657 6.45666 13.7175 5.37631 12.9208 4.57953C12.124 3.78274 11.0436 3.33461 9.91681 3.33349C9.72895 3.33349 9.54878 3.40812 9.41594 3.54095C9.2831 3.67379 9.20848 3.85396 9.20848 4.04182C9.20848 4.22968 9.2831 4.40985 9.41594 4.54269C9.54878 4.67553 9.72895 4.75015 9.91681 4.75015ZM16.3577 12.3569C16.7682 12.7686 16.9987 13.3262 16.9987 13.9075C16.9987 14.4888 16.7682 15.0464 16.3577 15.458L15.7131 16.2011C9.91185 21.7551 -4.20522 7.64157 1.26311 1.8219L2.07769 1.11357C2.48978 0.714551 3.04239 0.493814 3.61598 0.499117C4.18957 0.504419 4.73801 0.735334 5.14265 1.1419C5.16461 1.16386 6.47714 2.86882 6.47714 2.86882C6.86661 3.27797 7.08341 3.82148 7.08249 4.38636C7.08156 4.95123 6.86298 5.49403 6.47219 5.90191L5.65194 6.93324C6.10587 8.03619 6.77327 9.03858 7.6158 9.88281C8.45832 10.727 9.45936 11.3965 10.5614 11.8526L11.5991 11.0274C12.007 10.6369 12.5497 10.4186 13.1144 10.4178C13.6791 10.417 14.2224 10.6338 14.6315 11.0232C14.6315 11.0232 16.3357 12.335 16.3577 12.3569ZM15.383 13.3869C15.383 13.3869 13.688 12.0828 13.666 12.0609C13.5201 11.9162 13.3229 11.835 13.1174 11.835C12.9119 11.835 12.7147 11.9162 12.5688 12.0609C12.5497 12.0807 11.121 13.219 11.121 13.219C11.0247 13.2956 10.9101 13.3459 10.7885 13.3647C10.6669 13.3836 10.5425 13.3705 10.4275 13.3267C8.99984 12.7951 7.70308 11.9629 6.62507 10.8865C5.54706 9.81008 4.71297 8.51455 4.17931 7.08766C4.132 6.9711 4.11657 6.84405 4.13462 6.71956C4.15267 6.59507 4.20355 6.47764 4.28202 6.37932C4.28202 6.37932 5.42031 4.94991 5.43944 4.93149C5.58413 4.78556 5.66531 4.58838 5.66531 4.38288C5.66531 4.17739 5.58413 3.98021 5.43944 3.83428C5.41748 3.81303 4.11344 2.11657 4.11344 2.11657C3.96533 1.98376 3.77203 1.91264 3.57316 1.91778C3.37429 1.92291 3.18492 2.00392 3.04386 2.1442L2.22927 2.85253C-1.76714 7.65786 10.4665 19.2129 14.6775 15.2335L15.3228 14.4897C15.474 14.3497 15.5648 14.1563 15.5761 13.9505C15.5873 13.7447 15.5181 13.5426 15.383 13.3869Z" fill="#525252"/>
</g>
<defs>
<clipPath id="clip0_45_4404">
<rect width="17" height="17" fill="white" transform="translate(0 0.5)"/>
</clipPath>
</defs>
</svg>
