<svg width="17" height="18" viewBox="0 0 17 18" fill="none" xmlns="http://www.w3.org/2000/svg">
<g id="fi-rr-user" clip-path="url(#clip0_45_4390)">
<path id="Vector" d="M8.5 9C9.34057 9 10.1623 8.75074 10.8612 8.28375C11.5601 7.81675 12.1048 7.15299 12.4265 6.37641C12.7482 5.59982 12.8323 4.74529 12.6683 3.92087C12.5044 3.09645 12.0996 2.33917 11.5052 1.7448C10.9108 1.15042 10.1536 0.745652 9.32913 0.581664C8.50471 0.417677 7.65018 0.501841 6.8736 0.823514C6.09701 1.14519 5.43325 1.68992 4.96625 2.38883C4.49926 3.08774 4.25 3.90943 4.25 4.75C4.25113 5.87683 4.69925 6.95718 5.49604 7.75396C6.29282 8.55075 7.37318 8.99888 8.5 9ZM8.5 1.91667C9.06038 1.91667 9.60818 2.08284 10.0741 2.39417C10.5401 2.7055 10.9032 3.14801 11.1177 3.66573C11.3321 4.18346 11.3882 4.75314 11.2789 5.30276C11.1696 5.85237 10.8997 6.35722 10.5035 6.75347C10.1072 7.14972 9.60237 7.41957 9.05276 7.52889C8.50314 7.63822 7.93345 7.58211 7.41573 7.36766C6.89801 7.15321 6.4555 6.79006 6.14417 6.32412C5.83284 5.85818 5.66667 5.31038 5.66667 4.75C5.66667 3.99856 5.96518 3.27789 6.49653 2.74653C7.02788 2.21518 7.74855 1.91667 8.5 1.91667Z" fill="#525252"/>
<path id="Vector_2" d="M8.5 10.417C6.80982 10.4189 5.1894 11.0911 3.99426 12.2863C2.79913 13.4814 2.12687 15.1018 2.125 16.792C2.125 16.9799 2.19963 17.16 2.33247 17.2929C2.4653 17.4257 2.64547 17.5003 2.83333 17.5003C3.02119 17.5003 3.20136 17.4257 3.3342 17.2929C3.46704 17.16 3.54167 16.9799 3.54167 16.792C3.54167 15.477 4.06406 14.2158 4.99393 13.2859C5.9238 12.3561 7.18497 11.8337 8.5 11.8337C9.81503 11.8337 11.0762 12.3561 12.0061 13.2859C12.9359 14.2158 13.4583 15.477 13.4583 16.792C13.4583 16.9799 13.533 17.16 13.6658 17.2929C13.7986 17.4257 13.9788 17.5003 14.1667 17.5003C14.3545 17.5003 14.5347 17.4257 14.6675 17.2929C14.8004 17.16 14.875 16.9799 14.875 16.792C14.8731 15.1018 14.2009 13.4814 13.0057 12.2863C11.8106 11.0911 10.1902 10.4189 8.5 10.417Z" fill="#525252"/>
</g>
<defs>
<clipPath id="clip0_45_4390">
<rect width="17" height="17" fill="white" transform="translate(0 0.5)"/>
</clipPath>
</defs>
</svg>
