<svg width="18" height="19" viewBox="0 0 18 19" fill="none" xmlns="http://www.w3.org/2000/svg">
<g id="dollar-sign" clip-path="url(#clip0_45_4096)">
<path id="Vector" d="M9.15771 1.5575V17.7372" stroke="white" stroke-width="1.47088" stroke-linecap="round" stroke-linejoin="round"/>
<path id="Vector_2" d="M12.8345 4.50061H7.31867C6.63599 4.50061 5.98127 4.7718 5.49855 5.25453C5.01582 5.73726 4.74463 6.39197 4.74463 7.07465C4.74463 7.75733 5.01582 8.41204 5.49855 8.89477C5.98127 9.3775 6.63599 9.64869 7.31867 9.64869H10.9959C11.6785 9.64869 12.3333 9.91988 12.816 10.4026C13.2987 10.8853 13.5699 11.5401 13.5699 12.2227C13.5699 12.9054 13.2987 13.5601 12.816 14.0429C12.3333 14.5256 11.6785 14.7968 10.9959 14.7968H4.74463" stroke="white" stroke-width="1.47088" stroke-linecap="round" stroke-linejoin="round"/>
</g>
<defs>
<clipPath id="clip0_45_4096">
<rect width="17.6506" height="17.6506" fill="white" transform="translate(0.333008 0.822632)"/>
</clipPath>
</defs>
</svg>
