<svg width="19" height="19" viewBox="0 0 19 19" fill="none" xmlns="http://www.w3.org/2000/svg">
<g id="truck" clip-path="url(#clip0_45_4086)">
<path id="Vector" d="M12.4432 3.06287H1.41162V12.6236H12.4432V3.06287Z" stroke="white" stroke-width="1.47088" stroke-linecap="round" stroke-linejoin="round"/>
<path id="Vector_2" d="M12.4458 6.74097H15.3876L17.5939 8.94729V12.6245H12.4458V6.74097Z" stroke="white" stroke-width="1.47088" stroke-linecap="round" stroke-linejoin="round"/>
<path id="Vector_3" d="M4.72385 16.3007C5.73928 16.3007 6.56245 15.4776 6.56245 14.4621C6.56245 13.4467 5.73928 12.6235 4.72385 12.6235C3.70842 12.6235 2.88525 13.4467 2.88525 14.4621C2.88525 15.4776 3.70842 16.3007 4.72385 16.3007Z" stroke="white" stroke-width="1.47088" stroke-linecap="round" stroke-linejoin="round"/>
<path id="Vector_4" d="M14.2844 16.3007C15.2998 16.3007 16.123 15.4776 16.123 14.4621C16.123 13.4467 15.2998 12.6235 14.2844 12.6235C13.269 12.6235 12.4458 13.4467 12.4458 14.4621C12.4458 15.4776 13.269 16.3007 14.2844 16.3007Z" stroke="white" stroke-width="1.47088" stroke-linecap="round" stroke-linejoin="round"/>
</g>
<defs>
<clipPath id="clip0_45_4086">
<rect width="17.6506" height="17.6506" fill="white" transform="translate(0.678711 0.856201)"/>
</clipPath>
</defs>
</svg>
